<?xml version="1.0" encoding="UTF-8" standalone="no"?>
<!-- Created with Inkscape (http://www.inkscape.org/) -->

<svg
   version="1.1"
   id="svg182"
   width="307.20001"
   height="307.20001"
   viewBox="0 0 307.20001 307.20001"
   sodipodi:docname="NLP.svg"
   inkscape:version="1.2.1 (9c6d41e410, 2022-07-14)"
   xmlns:inkscape="http://www.inkscape.org/namespaces/inkscape"
   xmlns:sodipodi="http://sodipodi.sourceforge.net/DTD/sodipodi-0.dtd"
   xmlns="http://www.w3.org/2000/svg"
   xmlns:svg="http://www.w3.org/2000/svg">
  <defs
     id="defs186" />
  <sodipodi:namedview
     id="namedview184"
     pagecolor="#505050"
     bordercolor="#eeeeee"
     borderopacity="1"
     inkscape:showpageshadow="0"
     inkscape:pageopacity="0"
     inkscape:pagecheckerboard="0"
     inkscape:deskcolor="#505050"
     showgrid="false"
     inkscape:zoom="1.7838793"
     inkscape:cx="122.48587"
     inkscape:cy="146.59064"
     inkscape:window-width="1920"
     inkscape:window-height="991"
     inkscape:window-x="2391"
     inkscape:window-y="-9"
     inkscape:window-maximized="1"
     inkscape:current-layer="g188" />
  <g
     inkscape:groupmode="layer"
     inkscape:label="Image"
     id="g188">
    <path
       style="fill:#000000;stroke-width:0.246514"
       d="m 6.4974935,304.33892 c -1.1906306,-0.42037 -2.7610433,-2.10573 -2.9605938,-3.17731 -0.079735,-0.42824 -0.1052665,-6.28152 -0.056727,-13.00727 0.083372,-11.55307 0.1170529,-12.33212 0.6095325,-14.10105 1.8687764,-6.71239 5.8640335,-12.02783 11.5912628,-15.42142 0.992166,-0.58788 4.257609,-2.03997 7.25654,-3.2269 2.998929,-1.18689 9.160814,-3.62803 13.693075,-5.42472 4.532262,-1.79668 9.707157,-3.84538 11.49977,-4.55266 l 3.259291,-1.28597 -0.01402,-4.98318 -0.01402,-4.98317 -1.632987,-1.23523 c -0.898147,-0.67936 -2.801232,-2.4025 -4.229086,-3.82917 -4.095553,-4.0922 -6.97762,-8.55366 -8.884281,-13.7529 -0.539634,-1.47156 -1.073077,-2.84228 -1.185437,-3.04609 -0.168523,-0.30569 -1.146965,-0.39225 -5.589745,-0.4944 l -5.385461,-0.12389 -1.475907,-0.78262 c -3.704335,-1.96425 -5.528553,-5.26932 -5.533322,-10.02491 l -0.0014,-1.4205 h -2.65753 c -2.368008,0 -2.797172,-0.07 -3.939318,-0.6415 -2.9449024,-1.47381 -3.475999,-5.38454 -1.0323566,-7.60174 1.2224996,-1.1092 2.2730786,-1.38839 5.2308576,-1.39009 l 2.398347,-0.002 v -1.43687 c 0,-4.72482 2.10269,-8.36577 5.849984,-10.12969 1.35263,-0.63671 1.59281,-0.66519 6.264695,-0.74241 4.757576,-0.0786 4.860575,-0.0913 4.975874,-0.61762 1.672063,-7.63066 3.278361,-11.74206 6.531916,-16.71866 6.802819,-10.40555 16.923476,-17.1239 29.26417,-19.42634 3.686086,-0.68772 11.533087,-0.62619 15.251025,0.1196 13.779823,2.76412 25.074488,11.33685 31.244558,23.71486 1.41888,2.84646 3.01162,7.46059 3.65407,10.58578 l 0.44723,2.17564 4.89614,0.12357 c 4.67367,0.11787 4.96042,0.15372 6.31119,0.78953 3.74716,1.76469 5.84148,5.33701 5.84148,9.96503 v 1.54539 l 2.76733,0.0937 c 3.1901,0.10789 4.24767,0.49696 5.44193,2.00158 1.57864,1.9889 1.00756,5.37266 -1.14875,6.80621 -0.92039,0.61189 -1.22886,0.66973 -3.99723,0.74936 l -2.99986,0.0863 -0.1241,2.38414 c -0.20706,3.97912 -1.50419,6.47749 -4.3561,8.39011 -2.11619,1.41924 -3.93223,1.77591 -9.04192,1.77591 h -4.13712 l -0.94801,2.90277 c -2.04878,6.27322 -5.28736,11.49111 -10.03009,16.16012 l -2.17416,2.14042 v 5.43744 5.43747 l 2.64431,1.03785 c 16.35472,6.41895 30.70027,12.15215 31.79349,12.70633 3.49194,1.77013 7.34099,5.18021 9.43204,8.3564 1.30464,1.98169 2.77909,5.2183 3.42215,7.51205 0.51783,1.84705 0.54219,2.42783 0.61743,14.71698 l 0.0784,12.79403 -0.56122,1.00288 c -0.33623,0.6008 -1.00608,1.26552 -1.67081,1.65804 l -1.10957,0.65513 -72.196407,0.0517 c -61.498734,0.0441 -72.3422077,0 -73.1803503,-0.29562 z M 108.65546,287.33278 c -0.0742,-7.71522 -0.0762,-7.74142 -0.66723,-8.60706 -0.32604,-0.47756 -0.98205,-1.13617 -1.45783,-1.46361 l -0.86503,-0.59531 -26.80754,-0.0649 -26.807527,-0.0649 -1.084516,0.52727 c -0.655302,0.31857 -1.345809,0.92358 -1.744741,1.52869 l -0.660227,1.00142 -0.07144,7.7387 -0.07143,7.7387 h 30.155962 30.155969 z m -20.382547,-51.0341 c 0.827947,-0.25878 1.917067,-0.78331 2.42026,-1.16561 1.911895,-1.45246 12.777877,-11.43161 13.972647,-12.83221 3.54688,-4.15799 5.93189,-9.2135 6.8552,-14.53096 0.55087,-3.17251 0.55482,-25.60343 0.005,-29.05598 -0.5423,-3.4061 -1.65946,-6.79552 -3.3235,-10.08343 -1.8393,-3.63416 -3.95791,-6.47264 -7.04351,-9.43672 l -2.4175,-2.32233 -0.150032,3.57169 c -0.113851,2.7125 -0.273875,3.9183 -0.664969,5.01256 -1.493571,4.17898 -4.718899,7.35518 -8.768208,8.63469 -1.664537,0.52598 -2.106326,0.54733 -11.325496,0.54733 -8.613759,0 -9.744104,-0.0464 -11.069298,-0.45424 -4.634038,-1.42624 -8.041644,-4.83727 -9.337638,-9.34708 -0.221564,-0.77102 -0.480445,-2.88119 -0.575284,-4.68928 l -0.172427,-3.28744 -2.607979,2.52379 c -4.285982,4.14763 -7.09364,8.59946 -8.919382,14.14255 -1.477178,4.48484 -1.670397,6.23695 -1.812727,16.43798 -0.145092,10.39943 0.111305,15.11832 1.014414,18.66965 1.235901,4.86003 3.799749,9.50139 7.255092,13.13404 1.82117,1.91464 15.680777,13.07361 17.270972,13.90562 1.888503,0.98811 2.600827,1.06241 10.346767,1.0794 6.75428,0.0163 7.699335,-0.0326 9.047454,-0.45402 z m -20.241154,-11.7421 c -3.361737,-1.22444 -4.158547,-5.79186 -1.414908,-8.11045 1.330587,-1.12441 2.098708,-1.19795 11.694547,-1.11943 l 8.950486,0.0732 1.054358,0.74455 c 1.496005,1.05641 2.059451,2.13702 2.059233,3.94928 -2.37e-4,1.79402 -0.66685,3.03724 -2.161537,4.03111 l -0.996701,0.66275 -9.119863,0.0568 c -7.293495,0.0454 -9.309254,-0.0122 -10.065615,-0.28775 z m -8.685338,-17.93856 c -6.703208,-1.18583 -11.400562,-6.74348 -11.400562,-13.48851 0,-4.001 1.206186,-6.98042 3.935749,-9.72174 5.425954,-5.44933 13.925972,-5.40778 19.309773,0.0944 4.159973,4.25145 5.14273,10.24468 2.554186,15.57649 -0.940391,1.93701 -3.141138,4.44709 -4.88352,5.57002 -2.571097,1.65696 -6.585275,2.48771 -9.515626,1.96932 z m 32.384647,0.008 c -6.923163,-1.10464 -11.951685,-7.4363 -11.480181,-14.45529 0.24268,-3.61261 1.699263,-6.61797 4.468235,-9.21936 5.911622,-5.55384 15.581778,-4.50725 20.267398,2.19355 1.85361,2.65083 2.36709,4.4011 2.35308,8.02066 -0.011,2.6233 -0.0881,3.16011 -0.67723,4.66356 -2.01492,5.1422 -6.50735,8.49585 -11.909746,8.89077 -0.917752,0.0669 -2.277437,0.0248 -3.021556,-0.094 z m -57.864299,-12.04693 0.06501,-7.7271 -3.385798,0.0688 -3.385801,0.0688 -0.06505,7.58794 -0.06505,7.5879 2.524881,0.0856 c 1.388687,0.047 2.91231,0.0787 3.385829,0.0704 l 0.860945,-0.0163 0.065,-7.72711 z m 94.515971,0.19229 v -7.65836 h -3.44377 -3.44379 v 7.65836 7.65834 h 3.44379 3.44377 z M 86.934425,164.63241 c 0.647716,-0.31491 1.211164,-0.8423 1.553569,-1.45412 0.506065,-0.90431 0.537261,-1.26852 0.537261,-6.27254 v -5.31252 l -1.906396,-0.51351 c -4.017509,-1.08221 -4.554951,-1.14647 -9.53188,-1.13972 -4.523602,0.007 -5.13366,0.0607 -7.577312,0.67783 -4.057839,1.02474 -3.662286,0.29587 -3.570504,6.57927 l 0.07851,5.37527 0.708218,0.93184 c 1.20353,1.58357 1.322449,1.60188 10.467906,1.61265 7.732708,0.009 8.285062,-0.0199 9.240626,-0.48445 z m 97.901735,139.8021 c -8.60245,-1.25911 -15.42757,-7.72785 -17.22927,-16.32959 -0.48449,-2.31311 -0.48303,-9.79524 0.002,-12.57921 1.13907,-6.53222 4.81118,-12.58843 10.02541,-16.53438 2.09832,-1.58795 5.3199,-3.32328 7.57038,-4.07784 0.7441,-0.24949 6.77687,-1.62697 13.40615,-3.06108 l 12.05324,-2.60747 0.0656,-6.51574 0.0656,-6.5157 -2.77257,-2.87197 c -5.88957,-6.1006 -9.42519,-13.05841 -11.06283,-21.77078 -0.14054,-0.7473 -0.3387,-4.69381 -0.44051,-8.77006 -0.13102,-5.24391 -0.31402,-8.16991 -0.62591,-10.00525 -0.64072,-3.77048 -0.66106,-14.33875 -0.0349,-18.15773 0.92547,-5.64502 2.55444,-10.78401 4.65938,-14.69911 5.48708,-10.20567 13.98677,-16.19515 26.87308,-18.93666 2.90984,-0.61905 3.663,-0.68026 8.36348,-0.67962 4.38684,5e-4 5.53894,0.082 7.64143,0.53971 6.58699,1.43403 11.9584,4.12706 16.09627,8.07007 1.31989,1.25769 1.39838,1.29364 3.19096,1.46095 1.01081,0.0943 2.75536,0.48916 3.87681,0.87736 6.47916,2.2429 10.88183,7.58679 12.73868,15.4619 1.6643,7.05867 1.39457,15.45461 -0.86116,26.80425 -0.65877,3.31463 -0.71905,4.08943 -0.80703,10.37583 -0.0889,6.35588 -0.13895,6.98477 -0.77606,9.75823 -1.66019,7.22792 -4.72485,13.16315 -9.71471,18.81425 l -1.99757,2.26227 0.0652,7.24892 0.0652,7.24888 2.8288,0.67823 c 1.55586,0.37301 6.64794,1.55605 11.31575,2.62899 4.66781,1.07293 9.37226,2.29391 10.45433,2.71333 8.44756,3.27414 14.69433,11.00456 16.26169,20.12391 0.58555,3.40689 0.37184,11.69801 -0.36606,14.20149 -2.10671,7.14752 -7.40203,12.35767 -14.66618,14.43031 l -1.96785,0.56152 -51.41074,0.034 c -28.27591,0.0183 -52.07489,-0.0633 -52.88665,-0.18208 z m 100.37482,-19.11694 c 3.13111,-1.57852 3.62039,-5.41654 0.98651,-7.73905 -1.39944,-1.23403 -2.10897,-1.3142 -10.91146,-1.23301 -7.79821,0.072 -8.07687,0.0913 -9.07993,0.62967 -1.10641,0.59384 -2.16337,2.10229 -2.43746,3.47854 -0.38123,1.91451 1.20783,4.54426 3.11491,5.15485 0.53985,0.17272 3.81202,0.28111 8.98003,0.29714 l 8.13066,0.0252 z m -41.77894,-29.42093 c 3.69657,-0.66682 7.86214,-2.35655 11.05032,-4.48252 l 1.32028,-0.88041 v -4.53533 c 0,-2.49442 -0.0444,-4.53533 -0.0988,-4.53533 -0.0544,0 -1.24432,0.49084 -2.64434,1.09072 -5.40699,2.31688 -9.75858,3.18931 -15.95161,3.19814 -5.561,0.008 -9.80305,-0.77553 -14.75737,-2.72546 -1.14904,-0.45225 -2.11761,-0.82227 -2.15237,-0.82227 -0.0347,0 -0.0621,1.91767 -0.061,4.2615 l 0.002,4.26152 1.41223,0.90226 c 4.11099,2.62635 9.07437,4.28803 14.20348,4.75509 1.62544,0.1481 5.52596,-0.0999 7.67711,-0.48791 z m -1.56658,-19.99086 c 10.94993,-1.65757 20.32174,-9.27071 24.36927,-19.79626 1.25741,-3.26987 1.8864,-6.72294 2.04705,-11.23809 l 0.13722,-3.85834 -1.69601,-0.17848 c -2.30684,-0.24276 -5.93562,-1.00115 -8.46059,-1.76823 -4.40869,-1.33932 -8.3488,-3.18182 -20.5397,-9.60488 -2.7058,-1.42562 -6.0266,-3.02909 -7.37951,-3.56325 -9.85646,-3.89144 -16.07452,-1.28464 -23.36635,9.79601 l -1.17607,1.78715 0.14237,5.62418 c 0.19862,7.84469 0.9058,11.02509 3.64003,16.37056 4.51403,8.82495 13.29789,15.07559 23.21985,16.52339 2.36227,0.34471 6.44495,0.30246 9.06234,-0.0938 z m -59.85813,-80.54266 c -0.52478,-0.23393 -5.47111,-5.00054 -12.66819,-12.20791 l -11.80725,-11.82413 -5.65763,-0.13425 c -5.79532,-0.13751 -7.32457,-0.34911 -10.15207,-1.40458 -6.52202,-2.43454 -11.54066,-8.04562 -13.36176,-14.93909 -0.38724,-1.4658 -0.55537,-3.01339 -0.65082,-5.9908 l -0.12866,-4.01447 H 102.03053 76.480096 l -0.0015,10.06703 c -7.31e-4,6.26254 -0.09888,10.41971 -0.2594,11.00021 -0.321061,1.16115 -1.566436,2.61516 -2.617794,3.05633 -1.072006,0.44984 -2.874602,0.42137 -3.836715,-0.0607 -0.432876,-0.21691 -6.100392,-5.71338 -12.594379,-12.21439 l -11.807251,-11.82003 -8.117485,-0.0942 C 27.94858,104.67407 27.033945,104.528 22.920363,102.49434 17.184506,99.658672 13.172688,94.679004 11.481597,88.295957 L 10.925266,86.196091 V 53.092171 19.988298 l 0.541609,-2.038061 C 13.57242,10.027127 19.461576,4.1184313 27.365732,1.9986334 L 29.374093,1.460013 h 67.153727 67.15373 l 2.09087,0.5492893 c 5.91893,1.5549613 11.16262,5.691311 13.8858,10.9534757 1.84807,3.571168 2.38689,5.840796 2.53293,10.669416 l 0.12517,4.137983 h 48.31885 c 34.32368,0 48.83104,0.07981 50.08716,0.275545 9.41825,1.467583 16.86727,9.135764 18.11769,18.650685 0.21165,1.611254 0.26734,10.715026 0.20885,34.18818 l -0.0796,31.992173 -0.55411,1.97634 c -2.20067,7.8495 -8.04018,13.64462 -15.86754,15.74702 l -2.02345,0.54348 -45.92754,0.0758 -45.92754,0.0758 -0.0715,10.43077 c -0.0687,10.02482 -0.0916,10.46924 -0.58543,11.41895 -1.09426,2.10427 -3.91921,3.14785 -6.0047,2.21822 z m -2.9518,-22.97784 c 0,-5.58024 0.0684,-6.96595 0.3807,-7.71675 0.50789,-1.22074 1.2573,-2.00283 2.44811,-2.55479 0.94582,-0.4384 2.84024,-0.45629 48.87728,-0.46149 33.90428,-0.003 48.2741,-0.085 49.19689,-0.2776 3.07182,-0.64138 6.36123,-3.02227 7.94425,-5.75006 0.38455,-0.66268 0.90183,-1.93872 1.14947,-2.83567 0.42557,-1.54132 0.45027,-3.36619 0.45027,-33.267573 0,-34.563611 0.0602,-33.042038 -1.41405,-35.762332 -1.48463,-2.739503 -4.1652,-4.940263 -7.14207,-5.86369 -1.56047,-0.48406 -2.43948,-0.490442 -67.55729,-0.490442 -72.41217,0 -66.86125,-0.112665 -69.87139,1.41823 -1.57058,0.798776 -4.07202,3.310981 -4.86737,4.888338 -1.49255,2.960038 -1.41215,0.921293 -1.41215,35.814394 0,34.893095 -0.0804,32.854375 1.41215,35.814405 0.77605,1.53909 3.23613,3.99984 4.87887,4.88019 2.33,1.24864 3.59631,1.42624 10.18012,1.42776 3.54743,7.4e-4 6.44214,0.11151 7.02037,0.26824 0.82837,0.22468 2.32573,1.61093 9.47041,8.76769 4.66754,4.67544 8.56946,8.50125 8.67094,8.5018 0.10143,5e-4 0.18449,-3.05975 0.18449,-6.80065 z m -23.34575,-26.86761 c -1.82818,-0.58787 -3.22518,-2.65095 -3.21379,-4.74606 0.005,-0.953105 0.74737,-2.565236 1.50154,-3.261538 1.5163,-1.399966 -2.6202,-1.309252 59.42641,-1.303342 54.78285,0.0051 57.05368,0.02325 58.00889,0.458941 3.5408,1.615286 3.66464,6.847019 0.2028,8.572729 -0.92876,0.46299 -2.28705,0.47497 -58.01939,0.51143 -40.63721,0.0265 -57.30971,-0.0403 -57.90654,-0.23216 z m -0.40193,-22.626994 c -3.52819,-1.609547 -3.70489,-6.657785 -0.29703,-8.486101 l 1.04517,-0.560734 h 57.31435 57.31436 l 1.04517,0.560734 c 3.40786,1.828316 3.23114,6.876554 -0.29704,8.486101 -0.95532,0.435797 -3.22125,0.453495 -58.06249,0.453495 -54.84122,0 -57.10716,-0.0177 -58.06249,-0.453495 z m 2.47003,-22.426719 c -1.09791,-0.584532 -1.59696,-1.088862 -2.14542,-2.168143 -1.02059,-2.008329 -0.45318,-4.436532 1.38609,-5.931619 l 0.92793,-0.754291 37.5513,-0.07289 c 25.75132,-0.04997 37.83269,0.0085 38.44673,0.187063 1.14667,0.332849 2.56378,1.902107 2.92106,3.234691 0.51791,1.931729 -0.15944,3.773434 -1.86999,5.083719 l -0.92419,0.707988 -37.77777,0.05324 c -34.12608,0.04807 -37.84913,0.01546 -38.51574,-0.339724 z m -43.23204,18.007077 c 2.23965,-1.201564 3.13624,-4.040094 1.96877,-6.232983 -0.32552,-0.611434 -1.06331,-1.445201 -1.63953,-1.852821 l -1.04771,-0.741125 -38.007269,-0.0648 c -25.709616,-0.04394 -38.314288,0.01811 -38.956181,0.191784 -1.931006,0.5222 -3.420335,2.510781 -3.420335,4.566894 0,2.047326 1.449023,3.958825 3.432978,4.528657 0.560592,0.160962 14.076509,0.232967 38.742545,0.206223 l 37.881592,-0.04101 z m -0.29702,-22.261096 c 3.5528,-1.620767 3.72172,-6.475586 0.29392,-8.447397 L 113.5007,47.163119 H 75.250128 36.999554 l -1.045157,0.560717 c -3.418972,1.834278 -3.242666,6.871316 0.297027,8.486102 0.950729,0.433712 2.652663,0.453511 38.998704,0.453511 36.346042,0 38.047962,-0.01973 38.998692,-0.453511 z M 99.272304,33.31434 c 1.139396,-0.91063 2.054136,-2.611368 2.046766,-3.805442 -0.007,-1.071594 -0.71162,-2.663902 -1.50291,-3.394476 -1.488801,-1.374574 0.14822,-1.308771 -32.560528,-1.308771 -24.722741,0 -30.291349,0.05989 -30.940435,0.332801 -1.115411,0.468965 -2.575683,2.178814 -2.775824,3.250242 -0.414483,2.218914 0.557291,4.360016 2.394644,5.276098 l 1.065537,0.531262 30.663757,-0.06313 30.663754,-0.06313 z"
       id="path300" />
  </g>
</svg>
