<?xml version="1.0" encoding="UTF-8" standalone="no"?>
<svg
   version="1.1"
   id="Layer_1"
   x="0px"
   y="0px"
   viewBox="0 0 511.999 511.999"
   style="enable-background:new 0 0 511.999 511.999;"
   xml:space="preserve"
   width="512px"
   height="512px"
   sodipodi:docname="pencil-case.svg"
   inkscape:version="1.2.1 (9c6d41e410, 2022-07-14)"
   xmlns:inkscape="http://www.inkscape.org/namespaces/inkscape"
   xmlns:sodipodi="http://sodipodi.sourceforge.net/DTD/sodipodi-0.dtd"
   xmlns="http://www.w3.org/2000/svg"
   xmlns:svg="http://www.w3.org/2000/svg"><defs
   id="defs319" /><sodipodi:namedview
   id="namedview317"
   pagecolor="#505050"
   bordercolor="#eeeeee"
   borderopacity="1"
   inkscape:showpageshadow="0"
   inkscape:pageopacity="0"
   inkscape:pagecheckerboard="0"
   inkscape:deskcolor="#505050"
   showgrid="false"
   inkscape:zoom="0.57521479"
   inkscape:cx="-66.931519"
   inkscape:cy="152.11709"
   inkscape:window-width="1920"
   inkscape:window-height="991"
   inkscape:window-x="2391"
   inkscape:window-y="-9"
   inkscape:window-maximized="1"
   inkscape:current-layer="Layer_1" /> <path
   style="fill:#070707;stroke:none;stroke-width:1.51088"
   d="M 121.15398,4.8668826 C 94.806926,10.282387 74.648854,37.782589 58.888948,55.579158 40.161636,76.726485 14.913378,100.65832 6.2629559,127.06393 c -4.2915214,13.10031 -0.7403722,27.10992 2.4467352,40.0315 7.3344549,29.7349 13.3894939,70.56131 36.3291179,94.30427 18.441356,19.08648 52.167745,27.1714 77.711831,35.72675 8.5789,2.87223 26.65477,5.63582 32.42194,12.23819 4.90493,5.61445 -2.63129,23.15536 -1.81384,30.72416 2.48758,23.03105 12.62322,45.503 21.03441,67.1958 7.28715,18.79336 15.85168,42.58355 31.53246,57.13067 11.51672,10.6841 27.92239,15.548 42.96132,20.93074 29.82898,10.67559 61.27858,19.16223 92.60685,25.48289 16.61653,3.35126 33.96752,7.67893 51.09338,4.13897 29.34836,-6.06327 50.38608,-39.7741 65.99029,-60.5033 18.47026,-24.53499 42.50333,-51.96089 49.49835,-81.4927 7.66235,-32.3569 -15.18757,-72.13397 -28.31058,-101.50856 -5.93959,-13.29613 -12.01013,-26.64239 -23.58437,-36.9233 -21.44805,-19.05648 -56.31289,-25.96906 -84.35037,-33.53213 -10.10688,-2.72643 -30.15148,-4.48924 -37.35732,-11.7664 -6.05771,-6.11912 -4.26946,-25.34 -5.88684,-33.58365 -4.71338,-24.02719 -12.58498,-48.7076 -22.32306,-71.484795 C 287.5423,40.384622 225.51987,26.63324 180.23055,13.164834 161.93286,7.7233119 140.66843,0.85564321 121.15398,4.8668826 m 20.85087,12.7315204 c 15.24496,-4.01831 38.6025,6.914315 52.59564,11.640593 45.45853,15.353344 88.82878,27.236022 105.37832,72.090384 6.40101,17.34827 11.64927,35.17252 16.56378,52.89878 1.71806,6.18914 4.99917,15.44932 -3.96292,18.44312 -12.36302,4.1318 -37.59514,-8.1579 -49.32273,-12.11812 -46.2473,-15.61761 -91.998,-26.14336 -109.10464,-72.091026 -6.44893,-17.319328 -11.96223,-35.06186 -16.35468,-52.898738 -1.49766,-6.085184 -4.89057,-15.567097 4.20723,-17.964993 m -32.03489,7.302886 c 8.31416,-0.561974 10.74221,7.922227 12.55523,13.521521 4.7694,14.729006 9.39032,29.449854 13.59594,44.320549 2.84527,10.057782 7.46602,20.954471 7.18021,31.453321 -0.94523,34.74731 -31.94994,63.14542 -54.718864,88.64117 -8.350726,9.35166 -23.929405,34.7131 -39.253902,34.68879 -7.34546,-0.0121 -9.883366,-8.25793 -11.727356,-13.24332 -5.365757,-14.50569 -9.505775,-29.50324 -13.641927,-44.3206 -3.142718,-11.25886 -7.222992,-24.03606 -6.29421,-35.74243 C 20.275787,111.32026 48.675225,84.529892 70.698851,59.868244 79.485616,50.02893 94.416213,25.95287 109.96996,24.901289 m 64.45035,25.019671 c -9.89769,6.072649 16.33541,29.640455 27.13525,21.345105 9.6486,-7.409825 -17.14653,-27.473616 -27.13525,-21.345105 m 68.17421,21.038446 c -7.26797,1.147443 -6.03058,7.450834 -3.0496,11.763098 4.41,6.380269 14.59183,13.484292 23.61782,12.019868 15.45576,-2.507961 -9.04828,-25.60186 -20.56822,-23.782966 m -50.65566,27.55137 c -10.69124,6.580474 14.99103,28.470204 26.03355,21.363924 9.60869,-6.18373 -15.28479,-27.979416 -26.03355,-21.363924 M 46.253547,117.12342 c -8.891821,4.18382 -14.631217,33.47191 -1.77773,28.18688 11.176367,-4.59495 15.496304,-34.64198 1.77773,-28.18688 m 76.497093,-0.0675 c -11.45433,0.77363 -25.80658,16.72258 -16.37812,26.6877 8.59166,9.08047 15.71966,-8.28521 16.229,-13.82045 0.39182,-4.25677 0.14911,-8.59886 0.14911,-12.86725 m 131.9545,2.90016 c -8.94446,6.8281 17.17379,29.1036 26.74265,20.53659 10.80948,-9.67992 -16.87837,-28.06751 -26.74265,-20.53661 m 26.11517,62.86595 c -42.39623,11.53906 -62.3114,45.16556 -85.67054,77.20364 -7.8141,10.71845 -16.99012,30.84853 -29.99006,37.07488 -6.8385,3.27543 -18.46384,-3.05097 -24.84572,-5.33562 -17.71599,-6.34497 -68.968803,-15.96255 -69.674201,-37.45812 -0.55453,-16.89467 22.645358,-36.35569 33.589061,-48.60967 14.83638,-16.61308 30.2126,-39.6498 52.05182,-49.42892 28.55467,-12.78382 67.54994,4.17042 94.20298,13.6865 10.17713,3.63283 21.8248,6.55229 30.33669,12.86729 M 170.65058,170.77386 c -20.31272,5.19696 -11.88873,27.40303 7.98332,22.13605 20.44362,-5.41714 11.72268,-27.17856 -7.98332,-22.13605 m 121.34639,24.02325 c 11.6461,-0.55047 24.02028,4.14899 35.12677,6.77675 22.47791,5.31707 44.94625,11.03297 67.06009,17.4623 12.79411,3.72011 25.43333,5.85322 31.34737,18.11426 6.63893,13.76516 -6.29245,29.00002 -14.33323,40.0316 -20.11007,27.58455 -47.29653,79.78279 -88.86422,82.78947 -34.90163,2.52336 -72.35309,-13.09461 -105.37999,-21.51267 -13.9165,-3.54712 -31.03909,-6.65096 -37.46885,-19.82129 -7.4165,-15.19345 9.48733,-32.46707 18.30891,-44.31495 23.04939,-30.95723 47.21963,-77.30801 94.20315,-79.52547 m -105.3734,26.11053 c -20.40692,5.25705 -12.09627,27.36157 7.97692,22.04165 20.46281,-5.42281 11.62372,-27.09129 -7.97692,-22.04165 m -70.2596,16.9848 c -20.839355,2.91944 -19.560902,26.69533 3.19205,23.24119 19.17566,-2.90944 16.77426,-26.03763 -3.19205,-23.24119 m 261.85317,2.88514 c -21.65403,4.47499 -18.87103,29.12299 4.78844,24.21053 20.76947,-4.31342 16.77139,-28.66545 -4.78844,-24.21053 m 73.44033,18.52174 c 8.2468,-1.39536 11.89363,6.7782 14.72448,12.16383 8.35055,15.88827 13.59087,33.53789 20.32396,50.03945 21.31236,52.23544 -10.93233,89.89222 -42.98546,131.53214 -8.14297,10.57973 -21.52151,37.0892 -36.75688,39.85705 -8.25482,1.49973 -11.62059,-7.45446 -14.13691,-12.69285 -8.02809,-16.71456 -15.14281,-34.15972 -21.40334,-51.46905 -3.95813,-10.94433 -9.12495,-22.67073 -9.12659,-34.31274 -0.001,-35.95976 29.65975,-67.8091 51.49422,-95.7897 8.4815,-10.86854 22.03878,-36.64746 37.86652,-39.32813 m -151.67712,7.20708 c -22.08516,4.33633 -18.04556,27.76185 4.78999,23.49422 22.70306,-4.24332 18.08226,-27.98486 -4.78999,-23.49422 m -79.8333,25.79176 c -21.05994,5.41857 -12.25753,27.99062 7.98333,22.33615 23.36231,-6.52655 14.88566,-28.22078 -7.98333,-22.33615 m -45.93911,55.80113 c 14.97508,-6.04476 42.46159,4.36483 57.11578,8.13213 34.16062,8.77972 77.93327,17.37508 103.50549,41.1738 10.86381,10.11078 16.77944,24.10324 22.12189,37.04343 6.81142,16.49016 14.36202,33.02744 19.42191,50.0394 1.61099,5.41567 4.96242,14.44565 -1.7995,18.12568 -11.98931,6.52515 -39.86877,-4.70369 -52.23976,-7.58736 -54.93183,-12.80582 -107.45566,-25.19412 -130.2879,-76.30436 -7.52511,-16.84466 -14.48489,-34.06678 -20.2441,-51.46909 -1.84412,-5.57151 -5.57551,-15.9297 2.40619,-19.15363 m 28.8852,12.17814 c -12.84518,6.45651 14.08094,30.09366 25.91696,22.65641 10.80783,-6.78968 -16.41044,-27.43446 -25.91696,-22.65641 m 227.76777,-0.33017 c -12.50834,2.79935 -18.04553,35.10336 -3.18696,31.96516 12.25123,-2.58631 16.18065,-34.87173 3.18696,-31.96516 m -144.28619,24.52217 c -11.75949,7.97056 17.00607,29.83062 28.38393,21.3454 9.44915,-7.04559 -19.01789,-27.69179 -28.38393,-21.3454 M 219.0645,403.0555 c -11.95737,6.8997 14.9879,27.94772 26.115,21.33961 12.55777,-7.45585 -15.56903,-27.42438 -26.115,-21.33961 m 83.48166,22.86085 c -11.02497,7.79899 16.16951,28.0678 27.25516,21.35824 11.95109,-7.23141 -17.03167,-28.58963 -27.25516,-21.35824 m -68.63745,18.58602 c -10.28415,7.46592 18.19234,28.56111 28.37908,21.35396 10.72482,-7.58596 -18.5293,-28.50524 -28.37908,-21.35396 m 84.60576,22.87089 c -10.44382,7.53307 18.05834,28.71403 28.39517,21.35819 10.40071,-7.40006 -18.0998,-28.78688 -28.39517,-21.35819 z"
   id="path704" /></svg>
